<svg data-v-fde0c5aa="" xmlns="http://www.w3.org/2000/svg" viewBox="0 0 300 300" class="iconLeft"><!----><defs data-v-fde0c5aa=""><!----></defs><rect data-v-fde0c5aa="" fill="#48B68D" x="0" y="0" width="300px" height="300px" class="logo-background-square"></rect><defs data-v-fde0c5aa=""><!----></defs><g data-v-fde0c5aa="" id="7f5e03db-17f6-4758-b8cb-1b041d9f3e7d" fill="#294F58" transform="matrix(2.0526395372000725,0,0,2.0526395372000725,85.27931695578695,129.59676288277828)"><path d="M11.66 3.92L8.67 3.92L6.48 11.80L4.30 3.92L1.25 3.92L1.25 13.58L3.18 13.58L3.18 9.11C3.18 8.11 3.18 6.83 3.15 5.82C3.37 6.82 3.72 8.11 4.02 9.09L5.40 13.58L7.50 13.58L8.86 9.10C9.17 8.11 9.52 6.82 9.76 5.81C9.73 6.82 9.73 8.11 9.73 9.11L9.73 13.58L11.66 13.58ZM20.50 6.13L18.38 6.13L16.56 12.11L14.71 6.13L12.56 6.13L15.60 13.93L15.50 14.17C15.19 14.91 14.76 15.16 14.10 15.16C13.90 15.16 13.72 15.16 13.52 15.13L13.52 16.46C13.80 16.51 14.04 16.52 14.39 16.52C15.90 16.52 16.72 15.88 17.50 13.86ZM32.13 3.92L29.13 3.92L26.95 11.80L24.77 3.92L21.71 3.92L21.71 13.58L23.65 13.58L23.65 9.11C23.65 8.11 23.65 6.83 23.62 5.82C23.84 6.82 24.19 8.11 24.49 9.09L25.87 13.58L27.97 13.58L29.33 9.10C29.64 8.11 29.99 6.82 30.23 5.81C30.20 6.82 30.20 8.11 30.20 9.11L30.20 13.58L32.13 13.58ZM40.78 6.13L38.85 6.13L38.85 9.93C38.85 11.61 38.18 12.40 37.21 12.40C36.32 12.40 35.87 11.91 35.77 11.14C35.73 10.77 35.71 10.36 35.71 10.12L35.71 6.13L33.78 6.13L33.78 10.53C33.78 11.13 33.80 11.51 33.85 11.89C34.02 12.91 34.94 13.78 36.48 13.78C37.20 13.78 37.73 13.64 38.28 13.27L38.85 12.32L38.85 13.58L40.78 13.58ZM45.22 5.94C43.44 5.94 42.27 6.80 42.27 8.23C42.27 9.52 43.22 10.12 44.60 10.47C45.89 10.79 46.38 11.12 46.38 11.69C46.38 12.24 45.91 12.50 45.29 12.50C44.62 12.50 44.06 12.12 43.90 11.31L41.97 11.31C42.18 12.99 43.46 13.78 45.26 13.78C46.97 13.78 48.33 13.05 48.33 11.55C48.33 10.18 47.43 9.56 45.91 9.17C44.67 8.86 44.21 8.57 44.21 8.01C44.21 7.55 44.52 7.21 45.09 7.21C45.74 7.21 46.12 7.60 46.24 8.29L48.17 8.29C48.01 6.93 47.00 5.94 45.22 5.94ZM50.48 3.36C49.85 3.36 49.42 3.78 49.42 4.38C49.42 5.00 49.85 5.40 50.48 5.40C51.11 5.40 51.55 5.00 51.55 4.38C51.55 3.78 51.11 3.36 50.48 3.36ZM51.45 13.58L51.45 6.13L49.52 6.13L49.52 13.58ZM56.46 5.94C54.42 5.94 52.74 7.36 52.74 9.91C52.74 12.49 54.26 13.78 56.29 13.78C58.16 13.78 59.53 12.84 59.85 11.00L57.92 11.00C57.72 11.94 57.16 12.42 56.41 12.42C55.44 12.42 54.74 11.63 54.74 9.79C54.74 8.09 55.44 7.29 56.42 7.29C57.22 7.29 57.78 7.74 57.96 8.82L59.86 8.82C59.72 7.17 58.48 5.94 56.46 5.94ZM67.10 8.37C68.07 8.04 68.60 7.38 68.60 6.38C68.60 5.08 67.73 4.17 66.16 3.98C65.69 3.92 65.41 3.92 64.92 3.92L61.46 3.92L61.46 13.58L64.97 13.58C65.52 13.58 65.83 13.58 66.32 13.52C67.61 13.34 68.96 12.49 68.96 10.70C68.96 9.45 68.35 8.69 67.10 8.37ZM63.39 5.43L64.79 5.43C65.02 5.43 65.27 5.45 65.49 5.47C66.14 5.56 66.58 5.91 66.58 6.64C66.58 7.34 66.23 7.73 65.53 7.84C65.31 7.87 65.09 7.88 64.85 7.88L63.39 7.88ZM65.72 12.04C65.53 12.05 65.30 12.05 65.07 12.05L63.39 12.05L63.39 9.32L65.00 9.32C65.23 9.32 65.45 9.34 65.69 9.37C66.39 9.44 66.93 9.81 66.93 10.71C66.93 11.52 66.39 11.98 65.72 12.04ZM73.65 5.94C71.18 5.94 69.79 7.59 69.79 9.86C69.79 12.11 71.18 13.78 73.65 13.78C76.13 13.78 77.52 12.11 77.52 9.86C77.52 7.59 76.13 5.94 73.65 5.94ZM73.65 12.42C72.49 12.42 71.79 11.45 71.79 9.86C71.79 8.25 72.49 7.29 73.65 7.29C74.82 7.29 75.52 8.25 75.52 9.86C75.52 11.45 74.82 12.42 73.65 12.42ZM82.52 9.81L85.09 6.13L82.87 6.13L81.40 8.61L79.91 6.13L77.66 6.13L80.19 9.80L77.56 13.58L79.77 13.58L81.34 11.00L82.87 13.58L85.12 13.58Z"></path></g><defs data-v-fde0c5aa=""><!----></defs><g data-v-fde0c5aa="" id="d2859186-5fdc-4ba5-b5c5-6b3e1013c97c" stroke="none" fill="#294F58" transform="matrix(0.41591381806722083,0,0,0.41591381806722083,37.53848151985679,129.324539638561)"><path d="M31.716 11.832v2.797h-.027v59.523c-3.111-1.391-6.916-1.955-10.897-1.393-9.153 1.293-15.768 8.035-14.775 15.064.992 7.027 9.216 11.676 18.369 10.383 8.646-1.221 15.023-7.307 14.867-13.9h.006V35.628c16.611-4.931 33.46-6.991 42.868-7.816v36.465c-3.111-1.393-6.917-1.957-10.897-1.395-9.153 1.293-15.768 8.037-14.775 15.064s9.216 11.678 18.369 10.385c8.645-1.223 15.023-7.309 14.866-13.902h.008V1.202C52.01-.73 31.716 11.832 31.716 11.832z"></path></g><!----></svg>